<svg xmlns="http://www.w3.org/2000/svg" xmlns:xlink="http://www.w3.org/1999/xlink" viewBox="0,0,256,256" width="64px" height="64px" fill-rule="nonzero"><g fill="#ffd700" fill-rule="nonzero" stroke="none" stroke-width="1" stroke-linecap="butt" stroke-linejoin="miter" stroke-miterlimit="10" stroke-dasharray="" stroke-dashoffset="0" font-family="none" font-weight="none" font-size="none" text-anchor="none" style="mix-blend-mode: normal"><g transform="scale(3.55556,3.55556)"><path d="M19,18c-3.87,0 -7,3.13 -7,7v22h-2c-2.21,0 -4,1.79 -4,4c0,2.21 1.79,4 4,4h29v-8h-19v-20.80078c0,-0.11 0.08922,-0.19922 0.19922,-0.19922h31.60156c0.11,0 0.19922,0.08922 0.19922,0.19922v7.80078h8v-9c0,-3.87 -3.13,-7 -7,-7zM46,38c-1.657,0 -3,1.343 -3,3v17c0,2.761 2.239,5 5,5h11c2.761,0 5,-2.239 5,-5v-17c0,-1.657 -1.343,-3 -3,-3zM49.5,42c0.828,0 1.5,0.672 1.5,1.5v2c0,1.379 1.121,2.5 2.5,2.5c1.379,0 2.5,-1.121 2.5,-2.5v-2c0,-0.828 0.672,-1.5 1.5,-1.5c0.828,0 1.5,0.672 1.5,1.5v2c0,3.032 -2.468,5.5 -5.5,5.5c-3.032,0 -5.5,-2.468 -5.5,-5.5v-2c0,-0.828 0.672,-1.5 1.5,-1.5z"></path></g></g></svg>