<svg xmlns="http://www.w3.org/2000/svg" xmlns:xlink="http://www.w3.org/1999/xlink" viewBox="0,0,256,256" width="50px" height="50px" fill-rule="nonzero"><g fill="#ffd700" fill-rule="nonzero" stroke="none" stroke-width="1" stroke-linecap="butt" stroke-linejoin="miter" stroke-miterlimit="10" stroke-dasharray="" stroke-dashoffset="0" font-family="none" font-weight="none" font-size="none" text-anchor="none" style="mix-blend-mode: normal"><g transform="scale(5.12,5.12)"><path d="M14,0c-0.88281,0 -1.53125,0.34375 -2,0.71875c-0.01172,0.00781 -0.01953,0.02344 -0.03125,0.03125c-0.14062,0.11328 -0.26562,0.23438 -0.375,0.34375c-0.01953,0.01953 -0.04297,0.04297 -0.0625,0.0625c-0.00391,0.00781 0.00391,0.02344 0,0.03125l-1.78125,2c0.39063,-0.11719 0.80859,-0.1875 1.25,-0.1875h28c0.44141,0 0.85938,0.06641 1.25,0.1875l-1.84375,-2.09375c-0.5,-0.66797 -1.41797,-1.09375 -2.3125,-1.09375zM11,5c-1.16016,0 -2,0.83984 -2,2v41c0,1.16016 0.83984,2 2,2h28c1.16016,0 2,-0.83984 2,-2v-41c0,-1.16016 -0.83984,-2 -2,-2zM16,10h18c0.60156,0 1,0.39844 1,1v5c0,0.60156 -0.39844,1 -1,1h-18c-0.60156,0 -1,-0.39844 -1,-1v-5c0,-0.60156 0.39844,-1 1,-1zM16,19h18c0.60156,0 1,0.39844 1,1v5c0,0.60156 -0.39844,1 -1,1h-18c-0.60156,0 -1,-0.39844 -1,-1v-5c0,-0.60156 0.39844,-1 1,-1zM25,32c1.10156,0 2,0.89844 2,2c0,1.10156 -0.89844,2 -2,2c-1.10156,0 -2,-0.89844 -2,-2c0,-1.10156 0.89844,-2 2,-2zM25,39c1.10156,0 2,0.89844 2,2c0,1.10156 -0.89844,2 -2,2c-1.10156,0 -2,-0.89844 -2,-2c0,-1.10156 0.89844,-2 2,-2z"></path></g></g></svg>