<svg xmlns="http://www.w3.org/2000/svg" xmlns:xlink="http://www.w3.org/1999/xlink" viewBox="0,0,256,256" width="50px" height="50px" fill-rule="nonzero"><g fill="#ffd700" fill-rule="nonzero" stroke="none" stroke-width="1" stroke-linecap="butt" stroke-linejoin="miter" stroke-miterlimit="10" stroke-dasharray="" stroke-dashoffset="0" font-family="none" font-weight="none" font-size="none" text-anchor="none" style="mix-blend-mode: normal"><g transform="scale(5.12,5.12)"><path d="M3,21c-1.65625,0 -3,1.42578 -3,3.08203c0,1.65625 1.34375,2.91797 3,2.91797h3c1.65625,0 3,-1.33984 3,-3c0,-1.65625 -1.34375,-3 -3,-3zM10,21v6h1v-5h3.97266c0.53516,0 1.02734,0.49219 1.02734,1.03125c0,0.53516 -0.49219,0.96875 -1.02734,0.96875h-2.97266l3.60547,3h1.39453l-2.48047,-2h0.52734c1.12109,0 1.95313,-0.85156 1.95313,-1.96875c0,-1.12109 -0.83203,-2.03125 -1.95312,-2.03125zM22,21c-0.26953,0 -0.51172,0.13672 -0.65625,0.36328l-3.34375,5.63672h1.08203l2.91797,-5l1.76172,3h-2.76172l1,1h2.34766l0.58984,1h1.0625l-3.35937,-5.64453c-0.14062,-0.22266 -0.37891,-0.35547 -0.64062,-0.35547zM29,21c-1.65625,0 -3,1.34375 -3,3c0,1.65625 1.34375,3 3,3h4l1,-1h-5.01953c-1.09375,0 -1.98047,-0.89453 -1.98047,-2c0,-1.10156 0.88672,-2 1.98047,-2h4.01953l1,-1zM35,21v5.42578c0,0.14844 0.05859,0.28906 0.16797,0.40234c0.10938,0.10938 0.26172,0.17188 0.42188,0.17188h4.41016l1,-1h-5v-5zM45,21c-1.65625,0 -3,1.34375 -3,3c0,1.65625 1.34375,3 3,3h4l1,-1h-5.01953c-0.92187,0 -1.69141,-0.63672 -1.91016,-1.5h5.92969l1,-1h-6.92969c0.22266,-0.85937 0.98828,-1.5 1.91016,-1.5h4.01953l1,-1zM2.98047,22h3.03906c1.09375,0 1.98047,0.89844 1.98047,2c0,1.10547 -0.88672,2 -1.98047,2h-3.03906c-1.09375,0 -1.98047,-0.89453 -1.98047,-2c0,-1.10156 0.88672,-2 1.98047,-2z"></path></g></g></svg>