<svg xmlns="http://www.w3.org/2000/svg" xmlns:xlink="http://www.w3.org/1999/xlink" viewBox="0,0,256,256" width="24px" height="24px" fill-rule="nonzero"><g fill="#ffd700" fill-rule="nonzero" stroke="none" stroke-width="1" stroke-linecap="butt" stroke-linejoin="miter" stroke-miterlimit="10" stroke-dasharray="" stroke-dashoffset="0" font-family="none" font-weight="none" font-size="none" text-anchor="none" style="mix-blend-mode: normal"><g transform="scale(10.66667,10.66667)"><path d="M12.30273,0.00391c-6.07886,-0.16033 -11.41281,4.30656 -12.20312,10.46875c-0.843,6.572 3.80005,12.58374 10.37305,13.42773c6.573,0.843 12.58674,-3.80005 13.42773,-10.37305c0.844,-6.572 -3.79805,-12.58373 -10.37305,-13.42773c-0.41075,-0.05269 -0.81935,-0.08501 -1.22461,-0.0957zM17.66602,4.48438c0.44445,0 0.85048,0.15949 1.16602,0.42383l-1.60937,1.61328c-0.022,0.022 -0.03516,0.05098 -0.03516,0.08398c0,0.033 0.01316,0.06298 0.03516,0.08398l1.24805,1.24805c-0.236,0.119 -0.51459,0.18945 -0.80859,0.18945c-0.50146,0 -0.95429,-0.20483 -1.2832,-0.5332h-0.00195l-0.00195,-0.00195c-0.328,-0.329 -0.53125,-0.78416 -0.53125,-1.28516c0,-1.006 0.81627,-1.82227 1.82227,-1.82227zM19.00977,5.07227c0.661,0.72 0.63631,1.83148 -0.05469,2.52148c-0.081,0.08 -0.16767,0.15184 -0.26367,0.21484l-0.00586,0.00391h-0.00195l-1.20703,-1.20703zM18.93555,6.02344c-0.03,0 -0.05708,0.00939 -0.08008,0.02539c-0.036,0.027 -0.05859,0.06919 -0.05859,0.11719c0,0.015 0.00186,0.02802 0.00586,0.04102c0.027,0.054 0.04297,0.11659 0.04297,0.18359c0,0.101 -0.03666,0.19362 -0.09766,0.26563c-0.019,0.024 -0.0293,0.05294 -0.0293,0.08594c0,0.044 0.02073,0.08533 0.05273,0.11133c0.023,0.018 0.05198,0.0283 0.08398,0.0293c0.042,0 0.08142,-0.02078 0.10742,-0.05078c0.099,-0.119 0.1582,-0.27241 0.1582,-0.44141c0,-0.11133 -0.02578,-0.21504 -0.07227,-0.30859v-0.00195h-0.00195v-0.00195c-0.02513,-0.03378 -0.06628,-0.05469 -0.11133,-0.05469zM15.33398,7.27539c0.25744,0.0212 0.46031,0.14234 0.66406,0.30859c-0.232,0.003 -0.44175,0.098 -0.59375,0.25l-4.45312,4.45312l-0.94922,-0.94922c3.29175,-3.282 4.55972,-4.12611 5.33203,-4.0625zM16.02344,7.8125c0.342,0 0.62109,0.27909 0.62109,0.62109c0,0.19 -0.0857,0.35966 -0.2207,0.47266l-0.00195,0.00195l-4.69922,4.125l-0.58789,-0.58789l4.43945,-4.43945c0.113,-0.118 0.27222,-0.19336 0.44922,-0.19336zM16.69727,8.96289c-0.147,1.345 -2.02856,3.2458 -3.97656,5.0918h-0.00195l-0.83984,-0.83984l4.69922,-4.125c0.043,-0.039 0.08219,-0.08 0.11719,-0.125zM9.83398,11.50781l0.87891,0.87891l-1.97852,0.42578c-0.006,0.001 -0.01253,0.00195 -0.01953,0.00195c-0.029,0 -0.05441,-0.01702 -0.06641,-0.04101c-0.007,-0.011 -0.00977,-0.02406 -0.00977,-0.03906c0,-0.021 0.00844,-0.04169 0.02344,-0.05469zM10.95313,12.62695l0.51172,0.51172l-1.09961,0.23828c-0.004,0.001 -0.00967,0.00195 -0.01367,0.00195c-0.023,0 -0.04273,-0.0132 -0.05273,-0.0332c-0.005,-0.009 -0.00977,-0.02025 -0.00977,-0.03125c0,-0.017 0.00853,-0.03197 0.01953,-0.04297zM11.66797,13.33984l0.875,0.875c-1.255,1.102 -2.97256,2.20058 -5.10156,3.26758c-0.075,0.039 -0.12305,0.11512 -0.12305,0.20313c0,0.01833 0.00124,0.03732 0.00586,0.05469l0.20313,0.86328c0.002,0.009 0.00391,0.0183 0.00391,0.0293c0,0.069 -0.056,0.125 -0.125,0.125c-0.035,0 -0.06684,-0.01311 -0.08984,-0.03711h-0.00195l-1.22852,-1.23047l3.76172,-3.75781zM5.91797,17.66211l1.2207,1.22266l-2.12305,-0.14844c-0.039,-0.003 -0.06836,-0.03422 -0.06836,-0.07422v-0.00781c0.002,-0.018 0.00948,-0.03487 0.02148,-0.04687h0.00195z"></path></g></g></svg>