<svg xmlns="http://www.w3.org/2000/svg" xmlns:xlink="http://www.w3.org/1999/xlink" viewBox="0,0,256,256" width="50px" height="50px" fill-rule="nonzero"><g fill="#ffd700" fill-rule="nonzero" stroke="none" stroke-width="1" stroke-linecap="butt" stroke-linejoin="miter" stroke-miterlimit="10" stroke-dasharray="" stroke-dashoffset="0" font-family="none" font-weight="none" font-size="none" text-anchor="none" style="mix-blend-mode: normal"><g transform="scale(10.66667,10.66667)"><path d="M1.71289,0.29492l-1.41602,1.41406l2.29102,2.29102l-2.28906,2.28906l1.41406,1.41602l2.28906,-2.29102l2.28906,2.28906l1.41602,-1.41406l-2.28906,-2.28906l2.28906,-2.29102l-1.41406,-1.41406l-2.28906,2.29102zM20.00195,1c-1.64446,0 -3,1.35443 -3,3c0,1.64506 1.35494,3 3,3c1.64506,0 3,-1.35494 3,-3c0,-1.64506 -1.35494,-3 -3,-3zM20.00195,3c0.56294,0 1,0.43706 1,1c0,0.56294 -0.43706,1 -1,1c-0.56294,0 -1,-0.43706 -1,-1c0,-0.56443 0.43646,-1 1,-1zM9.71289,8.29297l-1.41406,1.41602l2.28906,2.28906l-2.28906,2.28906l1.41406,1.41406l2.28906,-2.28906l2.28906,2.28906l1.41601,-1.41406l-2.28906,-2.29101l2.28906,-2.28906l-1.41406,-1.41406l-2.28906,2.28906zM4.00195,8.99805c-1.64506,0 -3,1.35494 -3,3c0,1.64506 1.35494,3 3,3c1.64506,0 3,-1.35494 3,-3c0,-1.64506 -1.35494,-3 -3,-3zM4.00195,10.99805c0.56294,0 1,0.43706 1,1c0,0.56294 -0.43706,1 -1,1c-0.56294,0 -1,-0.43706 -1,-1c0,-0.56294 0.43706,-1 1,-1zM4.00195,16.99805c-1.64506,0 -3,1.35494 -3,3c0,1.64506 1.35494,3 3,3c1.64506,0 3,-1.35494 3,-3c0,-1.64506 -1.35494,-3 -3,-3zM4.00195,18.99805c0.56294,0 1,0.43706 1,1c0,0.56294 -0.43706,1 -1,1c-0.56294,0 -1,-0.43706 -1,-1c0,-0.56294 0.43706,-1 1,-1zM17.71094,16.29297l-1.41406,1.41406l2.29102,2.29102l-2.28906,2.28906l1.41406,1.41406l2.28906,-2.28906l2.28906,2.28906l1.41602,-1.41406l-2.29102,-2.28906l2.29102,-2.29102l-1.41406,-1.41406l-2.29102,2.29102z"></path></g></g></svg>